<svg width="87" height="81" viewBox="0 0 87 81" fill="none" xmlns="http://www.w3.org/2000/svg">
<path d="M86.9484 23.4412C86.8158 22.9576 86.4842 22.5472 86.0274 22.3054L44.3879 0.21983C44.1226 0.0806043 43.8132 0 43.5111 0C43.2089 0 42.8995 0.0732766 42.6342 0.21983L0.98738 22.3054C0.375794 22.6278 0 23.258 0 23.9395C0 24.6209 0.375794 25.2585 0.98738 25.5809L10.758 30.7615C10.9128 30.8421 11.0233 30.9667 11.1043 31.1059V46.0251C11.1043 46.7065 11.4801 47.3294 12.077 47.6518L37.2478 61.3032L41.9047 63.824L42.5753 64.1903C42.5753 64.1903 42.6195 64.205 42.6342 64.2123C42.6637 64.227 42.7005 64.2343 42.73 64.249C42.7595 64.2636 42.7889 64.2709 42.811 64.2783H42.8258L42.87 64.3002C43.1132 64.3882 43.3195 64.4322 43.5037 64.4322C43.6879 64.4322 43.8942 64.3882 44.1374 64.3002L44.189 64.2856H44.1963C44.1963 64.2856 44.2553 64.2636 44.2774 64.249C44.2995 64.2343 44.329 64.227 44.3584 64.2196C44.3805 64.2123 44.41 64.1977 44.4321 64.1903L45.3311 63.6994L54.5712 58.6946C54.5712 58.6946 54.5712 58.6946 54.5786 58.6873L61.0628 55.17V60.336C61.0628 60.717 60.8197 61.0614 60.4586 61.186C57.4965 62.2338 55.5144 65.0184 55.5144 68.1033V79.1461C55.5144 80.172 56.3544 81 57.3786 81H68.4829C69.5145 81 70.3472 80.1646 70.3472 79.1461V68.1033C70.3472 65.011 68.3577 62.2338 65.4029 61.186C65.0418 61.0541 64.7987 60.717 64.7987 60.336V53.1475L72.1377 49.1686H72.1525L74.923 47.6665C75.0483 47.6005 75.1588 47.5052 75.262 47.4173C75.5567 47.1608 75.7557 46.8238 75.8367 46.4427C75.8662 46.3108 75.8957 46.1789 75.8957 46.0397V31.1206C75.9767 30.9814 76.0872 30.8568 76.242 30.7762L86.0126 25.5955C86.6242 25.2731 87 24.6429 87 23.9541C87 23.7856 86.9779 23.6171 86.9337 23.4559L86.9484 23.4412ZM41.6395 57.9472C41.6395 58.2696 41.47 58.5627 41.19 58.7239C41.05 58.8118 40.8879 58.8485 40.7258 58.8485C40.5784 58.8485 40.4236 58.8118 40.291 58.7386L15.3118 45.1824C15.017 45.0212 14.8402 44.7207 14.8402 44.3837V34.4327C14.8402 34.1176 15.0097 33.8172 15.2823 33.656C15.4297 33.568 15.5918 33.5241 15.7539 33.5241C15.9012 33.5241 16.0486 33.5607 16.1812 33.634L38.552 45.4975L41.1679 46.8897C41.4626 47.0436 41.6468 47.3514 41.6468 47.6884V57.9472H41.6395ZM46.7164 58.7459C46.5837 58.8192 46.429 58.8558 46.2816 58.8558C46.1195 58.8558 45.9574 58.8118 45.8174 58.7312C45.5374 58.57 45.3679 58.2696 45.3679 57.9545V47.6958C45.3679 47.3587 45.5521 47.0509 45.8469 46.897L59.7291 39.5327C59.8618 39.4595 60.0091 39.4228 60.1565 39.4228C60.3186 39.4228 60.4807 39.4668 60.6281 39.5547C60.9007 39.7159 61.0702 40.0164 61.0702 40.3315V50.9566L46.7164 58.7459ZM66.6261 68.118V76.3982C66.6261 76.8965 66.2208 77.3069 65.7124 77.3069H60.1565C59.6555 77.3069 59.2428 76.9038 59.2428 76.3982V68.118C59.2428 66.0955 60.9007 64.4541 62.9271 64.4541C64.9534 64.4541 66.6113 66.0955 66.6113 68.118H66.6261ZM72.1819 44.391C72.1819 44.6401 72.0567 44.86 71.8725 45.0285C71.8135 45.0798 71.7767 45.1531 71.703 45.1897L64.806 48.9341V37.3857C64.806 37.0487 64.9903 36.7409 65.285 36.587L70.8409 33.6413C70.9072 33.6047 70.9809 33.6047 71.0545 33.59C71.1282 33.5754 71.1945 33.5387 71.2682 33.5387C71.4303 33.5387 71.5924 33.5827 71.7398 33.6706C72.0125 33.8318 72.1819 34.1323 72.1819 34.4473V44.3983V44.391ZM79.6831 24.7455L64.0913 33.0185C63.9587 33.0917 63.8113 33.1284 63.6639 33.1284C63.5092 33.1284 63.3545 33.0917 63.2145 33.0111L44.4395 22.342C44.1595 22.1808 43.8426 22.0929 43.5184 22.0929C42.8479 22.0929 42.2289 22.452 41.8974 23.0308C41.3889 23.9175 41.6984 25.0533 42.59 25.5589L58.3291 34.4986C58.6165 34.6599 58.7933 34.9676 58.786 35.2974C58.786 35.6271 58.5944 35.9275 58.307 36.0814L43.9458 43.6949C43.8132 43.7681 43.6658 43.8048 43.5184 43.8048C43.3711 43.8048 43.2237 43.7681 43.091 43.6949L39.8489 41.9729L37.2626 40.6026L7.33904 24.7382C7.0443 24.5843 6.86008 24.2765 6.86008 23.9395C6.86008 23.6024 7.0443 23.2946 7.33904 23.1408L43.0763 4.1841C43.2089 4.11082 43.3563 4.07418 43.5037 4.07418C43.6511 4.07418 43.7984 4.11082 43.9311 4.1841L79.6757 23.1408C79.9704 23.2946 80.1547 23.6024 80.1547 23.9395C80.1547 24.2765 79.9704 24.5843 79.6757 24.7382L79.6831 24.7455Z" fill="white"/>
</svg>
