<svg width="85" height="88" viewBox="0 0 85 88" fill="none" xmlns="http://www.w3.org/2000/svg">
<path d="M29.7764 83.6595H4.66297C4.15966 83.6595 3.74518 83.2525 3.74518 82.7418V4.66297C3.74518 4.15966 4.15226 3.74518 4.66297 3.74518H63.2239C63.7272 3.74518 64.1417 4.15226 64.1417 4.66297V21.3904C64.1417 22.4266 64.9855 23.263 66.0143 23.263C67.0431 23.263 67.8869 22.4192 67.8869 21.3904V1.87259C67.8869 0.836373 67.0431 0 66.0143 0H1.87259C0.843775 0 0 0.836373 0 1.87259V85.5321C0 86.5683 0.843775 87.4047 1.87259 87.4047H29.7764C30.8126 87.4047 31.649 86.5609 31.649 85.5321C31.649 84.5033 30.8052 83.6595 29.7764 83.6595Z" fill="white"/>
<path d="M84.4222 79.1222L78.8489 67.968C78.5306 67.3315 77.8867 66.9318 77.1687 66.9318C76.8801 66.9318 76.5988 66.9984 76.3324 67.1243C75.8883 67.3463 75.5478 67.7312 75.3924 68.2049C75.2369 68.6786 75.2739 69.1893 75.496 69.6334L78.3604 75.3696C78.5232 75.6878 78.4788 76.0727 78.2568 76.354C78.0791 76.576 77.8127 76.6945 77.5462 76.6945C77.4722 76.6945 77.3982 76.6871 77.3242 76.6648L72.0395 75.34C71.8914 75.303 71.736 75.2808 71.588 75.2808C70.9662 75.2808 70.3889 75.5916 70.0336 76.1171L66.777 81.0021C66.6067 81.2538 66.3181 81.4092 66.0146 81.4092C65.7112 81.4092 65.4225 81.2538 65.2523 81.0021L62.0992 76.2652C61.9142 75.9913 61.892 75.6434 62.04 75.3474L64.1716 71.0767C64.3271 70.7658 64.6453 70.5734 64.9932 70.5734C65.0524 70.5734 65.1042 70.5734 65.1634 70.5882C65.4225 70.64 65.6815 70.6622 65.9258 70.6622C66.3255 70.6622 66.6956 70.5956 67.0804 70.4698C68.8568 69.8628 69.6784 68.0717 70.3371 66.6284L70.3815 66.5321C70.8626 65.4811 71.0033 65.1999 71.1439 65.0296C71.2179 64.9334 71.3141 64.8594 71.4177 64.8002C71.736 64.6226 72.2393 64.5337 73.2755 64.3857C74.7928 64.1711 76.6876 63.9046 77.7682 62.3503C78.8193 60.8404 78.501 59.0048 78.2123 57.3764C77.9903 56.096 77.9459 55.6667 77.9977 55.3706C78.0125 55.2892 78.0347 55.2078 78.0717 55.1264C78.2346 54.7859 78.6046 54.3862 79.3374 53.6609C80.4476 52.5581 81.8317 51.1888 81.8317 49.2644C81.8317 47.34 80.4476 45.9707 79.3374 44.8679C78.501 44.0389 78.2419 43.7428 78.1087 43.4986C78.0717 43.4246 78.0421 43.3431 78.0273 43.2617C77.9533 42.9065 77.9977 42.3661 78.2197 41.1375C78.501 39.524 78.8193 37.6884 77.7682 36.1859C76.6876 34.6241 74.7928 34.3577 73.2681 34.1504L73.1497 34.1356C72.0691 33.9802 71.7952 33.9358 71.6028 33.8544C71.4843 33.81 71.3807 33.7359 71.2919 33.6471C71.0329 33.3807 70.796 32.907 70.3519 31.9522L70.3297 31.9004C69.671 30.4571 68.8568 28.6659 67.0804 28.059C66.7104 27.9331 66.3329 27.8739 65.9406 27.8739C64.6083 27.8739 63.3427 28.5845 62.3212 29.1544L62.2546 29.1914C61.248 29.7539 60.9446 29.902 60.7225 29.9612C60.6485 29.976 60.5745 29.9908 60.5005 29.9908C60.4561 29.9908 60.4043 29.9908 60.3598 29.976C59.9898 29.9168 59.5013 29.6725 58.5687 29.147C57.5547 28.5697 56.289 27.8591 54.9715 27.8591C54.5718 27.8591 54.1944 27.9257 53.8169 28.0516C52.0405 28.6585 51.2189 30.4497 50.5602 31.893L50.5158 31.9966C50.0347 33.0402 49.8941 33.3215 49.7534 33.4991C49.6794 33.5953 49.5832 33.6693 49.4796 33.7285C49.1613 33.9062 48.6654 33.995 47.6736 34.1356H47.6218C46.0971 34.3577 44.2097 34.6241 43.1217 36.1859C42.0707 37.6958 42.3963 39.5239 42.6776 41.1597C42.8996 42.4328 42.944 42.8694 42.8922 43.1655C42.8774 43.2469 42.8552 43.3283 42.8182 43.4024C42.6628 43.7354 42.2853 44.1425 41.5451 44.8753C40.4349 45.9781 39.0582 47.3474 39.0582 49.2644C39.0582 51.1814 40.4423 52.5581 41.5525 53.6609C42.3889 54.4899 42.6554 54.7859 42.7812 55.0228C42.8182 55.0968 42.8478 55.1782 42.8626 55.2596C42.944 55.6593 42.8626 56.2514 42.6776 57.3913C42.3963 59.0048 42.0781 60.833 43.1291 62.3429C44.2097 63.8972 46.1045 64.1637 47.6292 64.3783L47.7476 64.3931C48.8283 64.5485 49.1021 64.5929 49.2945 64.6744C49.413 64.7188 49.5166 64.7928 49.6054 64.8816C49.8645 65.1481 50.1087 65.6218 50.5454 66.5766L50.5676 66.6284C51.2263 68.0717 52.0405 69.8628 53.8243 70.4698C54.1944 70.5956 54.5792 70.6622 54.9715 70.6622C56.2964 70.6622 57.5621 69.9517 58.5835 69.3743C58.7463 69.2855 58.9536 69.1671 59.1608 69.0561C59.3014 68.9821 59.4495 68.945 59.5975 68.945C59.8269 68.945 60.0564 69.0339 60.234 69.2041C60.5227 69.478 60.5967 69.9146 60.4191 70.2699L55.3638 80.3878C55.2158 80.6765 54.9271 80.8689 54.6014 80.8911C54.5792 80.8911 54.5644 80.8911 54.5422 80.8911C54.2388 80.8911 53.9501 80.7357 53.7799 80.484L50.8711 76.1171C50.5232 75.599 49.9311 75.2808 49.3168 75.2808C49.1613 75.2808 49.0133 75.303 48.8579 75.34L43.588 76.6574C43.5139 76.6722 43.4399 76.6871 43.3659 76.6871C43.0921 76.6871 42.8256 76.5612 42.6554 76.3466C42.4333 76.0653 42.3889 75.6804 42.5518 75.3622L45.4161 69.626C45.875 68.7008 45.505 67.5758 44.5798 67.1169C44.3133 66.9836 44.0321 66.917 43.7434 66.917C43.0254 66.917 42.3889 67.3093 42.0633 67.9532L36.4825 79.1074C36.1568 79.7587 36.2382 80.5507 36.6971 81.1206C37.0524 81.5573 37.6001 81.8237 38.1626 81.8237C38.3181 81.8237 38.4661 81.8089 38.6141 81.7719L47.8661 79.4626C47.9401 79.4478 48.0141 79.433 48.0881 79.433C48.3916 79.433 48.6802 79.5811 48.8505 79.8401L53.3358 86.5755C53.6837 87.101 54.2684 87.4119 54.8975 87.4119C54.9345 87.4119 54.9641 87.4119 55.0159 87.4119C55.6821 87.3675 56.2816 86.9752 56.5777 86.3831L59.2052 81.1206C59.3532 80.8319 59.6419 80.6395 59.9676 80.6173C59.9824 80.6173 60.0046 80.6173 60.0268 80.6173C60.3302 80.6173 60.6189 80.7653 60.7891 81.0244L64.4973 86.5903C64.8452 87.1158 65.4299 87.4267 66.059 87.4267C66.6882 87.4267 67.2655 87.1158 67.6207 86.5903L72.1061 79.8549C72.2763 79.5959 72.565 79.4478 72.8684 79.4478C72.9424 79.4478 73.0165 79.4552 73.0905 79.4774L82.3424 81.7941C82.4904 81.8311 82.6459 81.8533 82.8013 81.8533C83.3638 81.8533 83.8967 81.5943 84.252 81.1502C84.7109 80.5803 84.7923 79.7883 84.4666 79.137L84.4222 79.1222ZM60.4339 64.8076C59.0572 64.8076 57.8137 65.5107 56.7109 66.1251C56.437 66.2805 56.0522 66.4951 55.7265 66.658C55.6007 66.7246 55.46 66.7542 55.3268 66.7542C55.0011 66.7542 54.6903 66.584 54.52 66.2805C54.3424 65.9622 54.1574 65.5625 54.0093 65.2443L53.9353 65.0889C53.4172 63.9564 52.8399 62.6759 51.7815 61.8692C50.7008 61.0476 49.3834 60.8626 48.1103 60.6849H48.0437C47.6662 60.6183 47.1925 60.5517 46.8224 60.4703C46.3857 60.3667 46.0897 59.9596 46.1193 59.5081C46.1489 59.0788 46.2525 58.4941 46.3265 58.0426C46.556 56.7399 46.7854 55.3928 46.3931 54.0976C46.0009 52.8467 45.0757 51.9215 44.1653 51.0111C43.7656 50.6188 43.3215 50.1674 43.0551 49.8195C42.8108 49.4938 42.8108 49.0423 43.0551 48.7167C43.3141 48.3762 43.736 47.9469 44.1653 47.5176C45.0683 46.622 45.9935 45.6968 46.3857 44.446C46.7854 43.1581 46.5412 41.7518 46.3191 40.5084V40.4639C46.2377 40.0199 46.1415 39.4721 46.1119 39.0428C46.0749 38.5914 46.3783 38.1843 46.815 38.0807C47.1851 37.9918 47.6588 37.9252 48.0363 37.8734H48.1029C49.376 37.6884 50.6934 37.5033 51.7741 36.6818C52.8325 35.8824 53.4098 34.5945 53.9279 33.4547L54.0019 33.2919C54.15 32.9736 54.3276 32.5813 54.5052 32.2704C54.6681 31.967 54.9863 31.7967 55.3046 31.7967C55.4378 31.7967 55.5785 31.8264 55.7043 31.893C56.0299 32.0558 56.4074 32.2704 56.6887 32.4259C57.7841 33.0402 59.0276 33.7434 60.4117 33.7434C61.7957 33.7434 63.091 33.0106 64.1346 32.4259L64.2086 32.3815C64.4899 32.226 64.8304 32.0336 65.1116 31.893C65.2375 31.8264 65.3781 31.7967 65.5113 31.7967C65.837 31.7967 66.1478 31.967 66.3107 32.2704C66.5105 32.6331 66.7252 33.1068 66.8954 33.4695C67.4357 34.6537 67.9982 35.8824 69.0418 36.6744C70.1225 37.4959 71.4399 37.681 72.7204 37.8586H72.7944C73.1719 37.9252 73.6382 37.9918 74.0009 38.0732C74.4376 38.1769 74.741 38.584 74.704 39.0354C74.6744 39.4573 74.5782 40.0051 74.5042 40.4491V40.501C74.2673 41.8036 74.0305 43.1433 74.4376 44.4386C74.8224 45.6894 75.755 46.6146 76.6802 47.5398C77.0281 47.8803 77.4944 48.3466 77.7682 48.7167C78.0125 49.0423 78.0125 49.4864 77.7682 49.8121C77.5092 50.16 77.0651 50.6114 76.6506 51.0111C75.755 51.9067 74.8224 52.8319 74.4302 54.0902C74.0305 55.3706 74.2673 56.7177 74.4894 58.0204C74.5486 58.3609 74.667 59.0566 74.7336 59.3082C74.8002 59.5451 74.7632 59.8042 74.6374 60.0114C74.5116 60.226 74.3043 60.3741 74.0675 60.4333C73.6974 60.5221 73.1941 60.5961 72.713 60.6627C71.4399 60.8404 70.1225 61.0254 69.0418 61.847C67.9908 62.6463 67.4061 63.9342 66.888 65.074L66.8214 65.2221C66.6734 65.5403 66.4883 65.94 66.3107 66.2583C66.1478 66.5618 65.8296 66.732 65.5113 66.732C65.3781 66.732 65.2375 66.7024 65.1116 66.6358C64.7934 66.4803 64.4307 66.2805 64.1272 66.1029C63.0318 65.4811 61.7883 64.7854 60.4043 64.7854L60.4339 64.8076Z" fill="white"/>
<path d="M70.6767 49.2794C70.6767 43.632 66.0804 39.0356 60.4404 39.0356C54.8005 39.0356 50.2041 43.632 50.2041 49.2794C50.2041 54.9267 54.8005 59.5157 60.4404 59.5157C66.0804 59.5157 70.6767 54.9193 70.6767 49.2794ZM60.4404 55.7705C56.8581 55.7705 53.9493 52.8617 53.9493 49.2794C53.9493 45.697 56.8581 42.7882 60.4404 42.7882C64.0228 42.7882 66.9316 45.7044 66.9316 49.2794C66.9316 52.8543 64.0228 55.7705 60.4404 55.7705Z" fill="white"/>
<path d="M45.5785 18.6075C45.5785 17.5712 44.7347 16.7349 43.7059 16.7349H24.188C23.1518 16.7349 22.3154 17.5712 22.3154 18.6075C22.3154 19.6437 23.1592 20.48 24.188 20.48H43.7059C44.7421 20.48 45.5785 19.6363 45.5785 18.6075Z" fill="white"/>
<path d="M15.8169 30.6792C14.7807 30.6792 13.9443 31.523 13.9443 32.5518C13.9443 33.5806 14.7881 34.4244 15.8169 34.4244H38.1251C39.1614 34.4244 39.9977 33.588 39.9977 32.5518C39.9977 31.5156 39.154 30.6792 38.1251 30.6792H15.8169Z" fill="white"/>
<path d="M32.5518 41.8335H15.8169C14.7807 41.8335 13.9443 42.6773 13.9443 43.7061C13.9443 44.7349 14.7881 45.5787 15.8169 45.5787H32.5518C33.588 45.5787 34.4244 44.7423 34.4244 43.7061C34.4244 42.6699 33.5806 41.8335 32.5518 41.8335Z" fill="white"/>
<path d="M32.5518 52.9878H15.8169C14.7807 52.9878 13.9443 53.8316 13.9443 54.8604C13.9443 55.8892 14.7881 56.733 15.8169 56.733H32.5518C33.588 56.733 34.4244 55.8892 34.4244 54.8604C34.4244 53.8316 33.5806 52.9878 32.5518 52.9878Z" fill="white"/>
<path d="M32.5518 64.1416H15.8169C14.7807 64.1416 13.9443 64.9854 13.9443 66.0142C13.9443 67.043 14.7881 67.8868 15.8169 67.8868H32.5518C33.588 67.8868 34.4244 67.043 34.4244 66.0142C34.4244 64.9854 33.5806 64.1416 32.5518 64.1416Z" fill="white"/>
</svg>
