<svg width="88" height="88" viewBox="0 0 88 88" fill="none" xmlns="http://www.w3.org/2000/svg">
<path d="M59.042 70.6772H85.5321C86.5683 70.6772 87.4047 69.8335 87.4047 68.8047V1.87259C87.4047 0.836373 86.5609 0 85.5321 0H54.8602C50.8856 0 46.9923 2.05763 44.4388 5.49934C44.2686 5.72879 43.9947 5.86942 43.7061 5.86942C43.4174 5.86942 43.1435 5.72879 42.9733 5.49934C40.4198 2.05763 36.5266 0 32.5519 0H1.87259C0.843775 0 0 0.843775 0 1.87259V68.8047C0 69.8335 0.843775 70.6772 1.87259 70.6772H32.5519C33.5882 70.6772 34.4245 69.8335 34.4245 68.8047C34.4245 67.7758 33.5808 66.9321 32.5519 66.9321H4.66297C4.15966 66.9321 3.74518 66.525 3.74518 66.0143V60.4409C3.74518 59.9376 4.15226 59.5231 4.66297 59.5231H32.5519C37.3259 59.5231 41.8335 64.0307 41.8335 68.8047C41.8335 69.8335 42.6772 70.6772 43.7061 70.6772C44.7349 70.6772 45.5787 69.8335 45.5787 68.8047C45.5787 64.0307 50.0862 59.5231 54.8602 59.5231H82.7492C83.2525 59.5231 83.6669 59.9302 83.6669 60.4409V66.0143C83.6669 66.5176 83.2599 66.9321 82.7492 66.9321H59.042C55.7039 66.9321 52.9876 69.6484 52.9876 72.9865C52.9876 76.3246 55.7039 79.041 59.042 79.041H81.3503C82.6011 79.041 83.6595 80.0994 83.6595 81.3503C83.6595 82.6011 82.6011 83.6595 81.3503 83.6595H28.3627C27.3265 83.6595 26.4901 84.5033 26.4901 85.5321C26.4901 86.5609 27.3339 87.4047 28.3627 87.4047H81.3503C84.6884 87.4047 87.4047 84.6884 87.4047 81.3503C87.4047 78.0122 84.6884 75.2958 81.3503 75.2958H59.042C57.7912 75.2958 56.7328 74.2374 56.7328 72.9865C56.7328 71.7357 57.7912 70.6772 59.042 70.6772ZM41.8335 57.8874C41.8335 58.2353 41.6336 58.5535 41.3154 58.709C41.1895 58.7682 41.0489 58.8052 40.9157 58.8052C40.7158 58.8052 40.516 58.7386 40.3532 58.6128C37.9847 56.7624 35.2831 55.778 32.5519 55.778H4.66297C4.15966 55.778 3.74518 55.3709 3.74518 54.8602V4.66297C3.74518 4.15966 4.15226 3.74518 4.66297 3.74518H32.5519C37.3259 3.74518 41.8335 8.25271 41.8335 13.0267V57.8874ZM82.7492 55.7706H54.8602C52.129 55.7706 49.4274 56.7476 47.059 58.6054C46.8961 58.7312 46.6963 58.7978 46.4964 58.7978C46.3632 58.7978 46.2226 58.7682 46.0968 58.7016C45.7785 58.5461 45.5787 58.2279 45.5787 57.88V13.0267C45.5787 8.25271 50.0862 3.74518 54.8602 3.74518H82.7492C83.2525 3.74518 83.6669 4.15226 83.6669 4.66297V54.8602C83.6669 55.3635 83.2599 55.778 82.7492 55.778V55.7706Z" fill="white"/>
<path d="M18.6079 14.8995H26.9717C28.0079 14.8995 28.8443 14.0557 28.8443 13.0269C28.8443 11.9981 28.0005 11.1543 26.9717 11.1543H18.6079C17.5717 11.1543 16.7354 11.9981 16.7354 13.0269C16.7354 14.0557 17.5791 14.8995 18.6079 14.8995Z" fill="white"/>
<path d="M32.5521 22.3081H13.0269C11.9981 22.3081 11.1543 23.1519 11.1543 24.1807C11.1543 25.2095 11.9981 26.0533 13.0269 26.0533H32.5447C33.5809 26.0533 34.4173 25.2095 34.4173 24.1807C34.4173 23.1519 33.5735 22.3081 32.5447 22.3081H32.5521Z" fill="white"/>
<path d="M32.5521 33.4622H13.0269C11.9981 33.4622 11.1543 34.3059 11.1543 35.3347C11.1543 36.3636 11.9981 37.2073 13.0269 37.2073H32.5447C33.5809 37.2073 34.4173 36.3636 34.4173 35.3347C34.4173 34.3059 33.5735 33.4622 32.5447 33.4622H32.5521Z" fill="white"/>
<path d="M32.5521 44.6165H13.0269C11.9981 44.6165 11.1543 45.4602 11.1543 46.489C11.1543 47.5179 11.9981 48.3616 13.0269 48.3616H32.5447C33.5809 48.3616 34.4173 47.5179 34.4173 46.489C34.4173 45.4602 33.5735 44.6165 32.5447 44.6165H32.5521Z" fill="white"/>
<path d="M74.3777 22.3081H54.8599C53.8237 22.3081 52.9873 23.1519 52.9873 24.1807C52.9873 25.2095 53.8311 26.0533 54.8599 26.0533H74.3777C75.414 26.0533 76.2503 25.2095 76.2503 24.1807C76.2503 23.1519 75.4066 22.3081 74.3777 22.3081Z" fill="white"/>
<path d="M74.3777 33.4622H54.8599C53.8237 33.4622 52.9873 34.3059 52.9873 35.3347C52.9873 36.3636 53.8311 37.2073 54.8599 37.2073H74.3777C75.414 37.2073 76.2503 36.3636 76.2503 35.3347C76.2503 34.3059 75.4066 33.4622 74.3777 33.4622Z" fill="white"/>
<path d="M66.014 44.6165H54.8599C53.8237 44.6165 52.9873 45.4602 52.9873 46.489C52.9873 47.5179 53.8311 48.3616 54.8599 48.3616H66.014C67.0502 48.3616 67.8866 47.5179 67.8866 46.489C67.8866 45.4602 67.0428 44.6165 66.014 44.6165Z" fill="white"/>
<path d="M60.4341 14.8995H68.7978C69.8341 14.8995 70.6704 14.0557 70.6704 13.0269C70.6704 11.9981 69.8267 11.1543 68.7978 11.1543H60.4341C59.3979 11.1543 58.5615 11.9981 58.5615 13.0269C58.5615 14.0557 59.4053 14.8995 60.4341 14.8995Z" fill="white"/>
</svg>
