<svg width="87" height="87" viewBox="0 0 87 87" fill="none" xmlns="http://www.w3.org/2000/svg">
<g clip-path="url(#clip0_125_310)">
<path d="M21.2914 0H4.64138C2.08494 0 0 2.08494 0 4.64138V65.6423C0 65.6423 0 65.6939 0 65.716C0 65.9002 0.0442036 66.0991 0.132611 66.3422C0.154713 66.3938 0.169447 66.4453 0.191549 66.4895C0.213651 66.5411 0.235752 66.5927 0.265221 66.6664L11.3456 86.057C11.6771 86.639 12.296 87 12.9664 87C13.6368 87 14.2557 86.639 14.5872 86.057L25.6675 66.659C25.6896 66.6001 25.7117 66.5411 25.7338 66.4895C25.756 66.438 25.7781 66.3864 25.8002 66.3348C25.8886 66.0917 25.9328 65.8928 25.9328 65.716C25.9328 65.6865 25.9328 65.6644 25.9328 65.6349V4.64138C25.9328 2.08494 23.8478 0 21.2914 0ZM3.72783 62.9312V26.8463C3.72783 26.3453 4.13303 25.9328 4.64138 25.9328H10.1963C10.6973 25.9328 11.1098 26.338 11.1098 26.8463V62.9312C11.1098 63.4321 10.7046 63.8447 10.1963 63.8447H4.64138C4.1404 63.8447 3.72783 63.4395 3.72783 62.9312ZM20.0758 68.9355L13.7547 79.9937C13.5926 80.2811 13.2905 80.4505 12.9664 80.4505C12.6422 80.4505 12.3402 80.2737 12.1781 79.9937L5.85697 68.9355C5.69489 68.6555 5.69489 68.3092 5.85697 68.0293C6.01905 67.7493 6.32111 67.5725 6.64527 67.5725H19.2875C19.6117 67.5725 19.9137 67.742 20.0758 68.0293C20.2379 68.3092 20.2379 68.6555 20.0758 68.9355ZM22.2049 62.9312C22.2049 63.4321 21.7997 63.8447 21.2914 63.8447H15.7365C15.2355 63.8447 14.8229 63.4395 14.8229 62.9312V26.8463C14.8229 26.3453 15.2281 25.9328 15.7365 25.9328H21.2914C21.7924 25.9328 22.2049 26.338 22.2049 26.8463V62.9312ZM22.2049 21.2914C22.2049 21.7924 21.7997 22.2049 21.2914 22.2049H4.64138C4.1404 22.2049 3.72783 21.7997 3.72783 21.2914V15.7365C3.72783 15.2355 4.13303 14.8229 4.64138 14.8229H21.2914C21.7924 14.8229 22.2049 15.2281 22.2049 15.7365V21.2914ZM22.2049 10.1889C22.2049 10.6899 21.7997 11.1025 21.2914 11.1025H4.64138C4.1404 11.1025 3.72783 10.6973 3.72783 10.1889V4.64138C3.72783 4.1404 4.13303 3.72783 4.64138 3.72783H21.2914C21.7924 3.72783 22.2049 4.13303 22.2049 4.64138V10.1963V10.1889Z" fill="white"/>
<path d="M74.0334 13.8799H46.2809C45.2495 13.8799 44.417 14.7124 44.417 15.7438C44.417 16.7752 45.2569 17.6077 46.2809 17.6077H74.0408C75.0648 17.6077 75.9047 16.7679 75.9047 15.7438C75.9047 14.7198 75.0648 13.8799 74.0408 13.8799H74.0334Z" fill="white"/>
<path d="M74.0334 24.9824H46.2809C45.2495 24.9824 44.417 25.8223 44.417 26.8463C44.417 27.8704 45.2569 28.7103 46.2809 28.7103H74.0408C75.0648 28.7103 75.9047 27.8704 75.9047 26.8463C75.9047 25.8223 75.0648 24.9824 74.0408 24.9824H74.0334Z" fill="white"/>
<path d="M82.3662 0H37.9269C35.3778 0 33.3076 2.0702 33.3076 4.64138V37.9709C33.3076 40.5052 35.3557 42.568 37.8827 42.5901C37.9048 42.5901 37.9195 42.5901 37.9416 42.5901C37.9564 42.5901 37.9785 42.5901 38.0006 42.5901H49.0588C49.5598 42.5901 49.9724 42.9953 49.9724 43.5037V57.3836C49.9724 58.1056 50.3997 58.776 51.0554 59.0781C51.3058 59.1886 51.5637 59.2475 51.8363 59.2475C52.2783 59.2475 52.713 59.0854 53.0445 58.7981L71.6984 42.8112C71.8605 42.6712 72.0742 42.5901 72.2878 42.5901H82.3883C84.9374 42.5901 87.0076 40.5199 87.0076 37.9488V4.61927C87.0076 2.0702 84.9374 0 82.3662 0ZM83.2798 37.9488C83.2798 38.4497 82.8746 38.8623 82.3662 38.8623H71.2638C70.8144 38.8623 70.3871 39.0244 70.0482 39.3117L55.1958 52.035C55.0263 52.1823 54.8127 52.256 54.6064 52.256C54.4738 52.256 54.3485 52.2265 54.2233 52.1749C53.8991 52.0276 53.6928 51.7034 53.6928 51.3498V40.7262C53.6928 39.6948 52.8603 38.8623 51.8289 38.8623H37.949C37.448 38.8623 37.0355 38.4571 37.0355 37.9488L37.0207 13.018C37.0207 12.959 37.0281 12.9148 37.0355 12.8706V4.64138C37.0355 4.1404 37.4407 3.72783 37.949 3.72783H82.3589C82.8598 3.72783 83.2724 4.13303 83.2724 4.64138V37.9488H83.2798Z" fill="white"/>
</g>
<defs>
<clipPath id="clip0_125_310">
<rect width="87" height="87" fill="white"/>
</clipPath>
</defs>
</svg>
