<svg width="32" height="25" viewBox="0 0 32 25" fill="none" xmlns="http://www.w3.org/2000/svg">
<path d="M0 3.44828C0 1.54385 1.54385 0 3.44827 0H28.5517C30.4562 0 32 1.54385 32 3.44828V3.44828C32 5.35271 30.4562 6.89655 28.5517 6.89655H3.44827C1.54385 6.89655 0 5.35271 0 3.44828V3.44828Z" fill="white"/>
<path d="M0 12.5C0 10.5956 1.54385 9.05172 3.44827 9.05172H28.5517C30.4562 9.05172 32 10.5956 32 12.5V12.5C32 14.4044 30.4562 15.9483 28.5517 15.9483H3.44827C1.54385 15.9483 0 14.4044 0 12.5V12.5Z" fill="white"/>
<path d="M0 21.5517C0 19.6473 1.54385 18.1034 3.44827 18.1034H16H28.5517C30.4562 18.1034 32 19.6473 32 21.5517V21.5517C32 23.4562 30.4562 25 28.5517 25H3.44827C1.54385 25 0 23.4562 0 21.5517V21.5517Z" fill="white"/>
</svg>
