<svg width="73" height="122" viewBox="0 0 73 122" fill="none" xmlns="http://www.w3.org/2000/svg">
  <path d="M67.7509 115.15C67.6734 115.209 67.5765 115.268 67.4409 115.366C67.6153 115.679 67.7703 115.993 67.9641 116.287C68.1385 116.581 68.1773 116.874 68.061 117.208C67.8866 117.756 67.7703 118.305 67.6347 118.853C67.5959 118.991 67.5378 119.108 67.4796 119.284C67.2277 119.186 66.9951 119.108 66.782 119.01C65.9293 118.657 65.0184 118.579 64.1076 118.481C61.8596 118.266 59.5921 118.344 57.3247 118.383C55.9682 118.403 54.631 118.52 53.2938 118.677C51.1233 118.912 48.9334 119.147 46.7823 119.461C44.7474 119.774 42.7126 120.186 40.6777 120.558C39.2242 120.813 37.8095 121.185 36.3754 121.577C36.0072 121.675 35.639 121.831 35.2708 121.929C34.3406 122.165 33.5848 121.792 32.9646 121.107C32.2282 120.264 31.9569 119.245 31.8794 118.168C31.7825 116.972 31.86 115.797 32.1895 114.641C32.3251 114.171 32.4414 113.661 32.9646 113.446C33.0422 113.407 33.1003 113.269 33.1003 113.191C33.1003 112.015 33.1003 110.859 33.1003 109.664C32.7321 109.645 32.5383 109.88 32.3639 110.095C32.0732 110.428 31.8019 110.781 31.5499 111.134C31.2398 111.565 30.8716 111.839 30.329 111.976C28.8755 112.348 27.4221 112.78 25.988 113.211C24.9027 113.544 23.8175 113.916 22.7322 114.288C21.8795 114.582 21.0268 114.935 20.1741 115.268C19.1083 115.679 18.0424 116.091 16.9959 116.541C15.6781 117.11 14.3603 117.697 13.0618 118.305C11.7828 118.893 10.5425 119.539 9.28281 120.166C9.0115 120.303 8.75956 120.46 8.48825 120.597C7.82934 120.93 7.46113 120.871 7.0154 120.284C6.60843 119.755 6.22084 119.186 5.94953 118.579C5.36814 117.364 5.03869 116.091 5.01931 114.739C5.01931 114.425 5.05807 114.092 5.11621 113.798C5.25187 113.211 5.52317 112.74 6.10456 112.505C6.33712 112.407 6.53092 112.27 6.76347 112.172C7.03479 112.074 7.13168 111.878 7.13168 111.604C7.09292 109.292 7.07354 107 7.03478 104.688C7.0154 103.532 7.01541 102.376 6.99603 101.22C6.95727 98.8489 6.93788 96.4586 6.87974 94.0879C6.84098 92.2461 6.76347 90.4044 6.66657 88.5627C6.5503 86.5446 6.39526 84.5265 6.24022 82.5084C6.20146 81.9206 6.0658 81.3524 5.9689 80.7451C6.66657 80.3728 7.38361 80.0985 8.13942 80.0201C8.7208 79.9417 9.32157 79.9417 9.92234 79.9026C10.4068 79.8634 10.9107 79.8634 11.3952 79.7654C13.1006 79.4715 14.806 79.4127 16.5308 79.354C18.7788 79.2756 21.0074 79.1972 23.2555 79.1384C25.7748 79.0797 28.3135 79.0797 30.8329 79.0405C30.8716 79.0405 30.9104 79.0405 30.9298 79.0405C31.4724 79.0601 31.5112 79.0797 31.5305 79.6479C31.5305 79.7654 31.5305 79.9026 31.5305 80.0201C31.5499 80.3728 31.4724 80.6275 31.1236 80.8038C30.9104 80.9018 30.7166 81.0977 30.5422 81.2545C30.0965 81.6463 29.6314 82.0382 29.1856 82.43C29.0693 82.528 28.9918 82.6456 28.8368 82.8219C29.1081 82.8611 29.2825 82.8807 29.5345 82.9199C29.2438 83.253 28.9143 83.4293 28.5849 83.6252C28.2942 83.8016 28.0228 83.9583 28.0035 84.3698C28.0035 84.6637 27.7515 84.7812 27.519 84.8792C26.4725 85.3298 25.4841 85.8588 24.3213 86.0352C22.3446 86.329 20.4067 86.7797 18.43 87.1715C17.461 87.3675 16.5114 87.5438 15.5424 87.7593C15.1161 87.8573 15.0967 87.8965 15.0773 88.3275C15.0385 89.5031 14.9998 90.6591 14.961 91.8347C14.9416 92.1482 14.9029 92.4616 14.9029 92.7947C14.8835 93.0103 14.9029 93.2062 14.9029 93.5001C19.3602 92.9711 23.7593 92.4225 28.2942 92.3637C28.236 92.6576 28.1973 92.8927 28.1391 93.0886C28.0422 93.5001 27.8872 93.8919 27.8291 94.3034C27.7515 94.7736 27.5965 95.1263 27.1508 95.3418C26.8407 95.4986 26.5694 95.7141 26.2593 95.9296C26.3368 96.008 26.395 96.0667 26.4919 96.1451C26.3756 96.2431 26.2787 96.3606 26.1624 96.4586C25.988 96.5958 25.7942 96.7133 25.6004 96.8505C25.2516 97.0856 24.9027 97.3403 25.0772 97.9085C24.5733 98.0456 24.1082 98.2024 23.6431 98.3199C23.333 98.3983 23.1392 98.5551 22.9842 98.849C22.8679 99.0645 22.6547 99.2604 22.4415 99.3976C21.9183 99.711 21.3563 100.005 20.7943 100.22C19.9997 100.534 19.1664 100.789 18.3524 101.043C17.1703 101.416 15.9688 101.749 14.7672 102.101C14.3215 102.239 14.2246 102.376 14.1858 102.866C14.1083 103.728 14.0502 104.59 13.9727 105.452C13.8758 106.549 13.7401 107.646 13.6238 108.724C13.6044 108.822 13.6238 108.939 13.6238 109.057C14.0308 109.096 14.3796 108.881 14.7285 108.763C15.0192 108.665 15.2711 108.528 15.5618 108.43C17.461 107.842 19.3796 107.235 21.2981 106.667C23.6818 105.961 26.1237 105.491 28.6042 105.158C29.9996 104.962 31.3949 104.844 32.7902 104.766C33.1584 104.746 33.1972 104.688 33.2166 104.315C33.2166 104.217 33.2166 104.139 33.2166 104.041C33.2166 99.5543 33.2166 95.0675 33.1972 90.5807C33.1972 89.0917 33.139 87.6026 33.1003 86.1135C33.0421 84.5461 32.984 82.9982 32.8871 81.4308C32.8484 80.6667 32.7515 79.9222 32.6546 79.158C32.577 78.5898 32.8096 78.198 33.3522 78.0216C33.546 77.9629 33.7592 77.9041 33.9724 77.8845C34.9026 77.7865 35.8522 77.6102 36.8018 77.8061C38.3328 78.1196 39.4762 78.9621 40.2901 80.2944C41.1816 81.7443 41.4916 83.3509 41.5498 85.0163C41.6079 86.8189 41.4916 88.641 41.356 90.4436C41.2591 91.7955 41.2009 93.167 41.1234 94.5385C41.0459 95.6945 40.9296 96.8309 40.8521 97.9869C40.7746 99.0449 40.6971 100.103 40.6196 101.161C40.542 102.239 40.4451 103.316 40.3482 104.394C40.2707 105.315 40.1932 106.235 40.0963 107.156C39.98 108.508 39.8444 109.88 39.7281 111.232C39.7087 111.349 39.7281 111.467 39.7281 111.624C39.8444 111.643 39.9607 111.682 40.0382 111.663C41.3947 111.408 42.7901 111.31 44.166 111.271C46.7823 111.232 49.3985 111.153 51.9954 111.193C53.8364 111.232 55.6775 111.33 57.4798 111.663C58.7007 111.878 59.941 111.996 61.1619 112.231C62.8673 112.584 64.5533 112.995 66.1618 113.642C66.4331 113.759 66.7045 113.896 66.9758 114.014C67.0727 114.053 67.1695 114.112 67.2277 114.19C67.3827 114.484 67.5378 114.778 67.7509 115.15Z" fill="white"/>
  <path d="M11.6665 66.5989C11.5502 66.5206 11.4533 66.4814 11.3177 66.3834C11.2595 66.6773 11.2208 66.932 11.182 67.1867C11.1432 67.4806 11.0657 67.7157 10.7169 67.8137C10.5619 67.8529 10.4262 68.0684 10.3487 68.2252C10.1743 68.6562 10.0386 69.0872 9.92234 69.5379C9.80606 69.9493 9.61226 70.2824 9.20529 70.4587C9.14715 70.4783 9.08902 70.5371 9.03088 70.5763C8.52701 70.8898 8.04253 71.2425 7.77121 71.8107C7.65493 72.0458 7.48051 72.2417 7.32547 72.4768C7.17043 72.4376 7.01541 72.3985 6.86037 72.3593C6.84099 72.3985 6.78285 72.4376 6.78285 72.4768C6.66657 72.8295 6.56968 73.1822 6.47278 73.5544C6.37588 73.8875 6.20146 74.1618 5.79449 74.3382C5.73635 73.9267 5.67821 73.574 5.65883 73.2018C5.6007 71.889 5.56193 70.5763 5.52317 69.2636C5.44566 66.5598 5.36814 63.8363 5.31 61.1325C5.27125 59.8198 5.25187 58.507 5.21311 57.1943C5.17435 55.6661 5.15496 54.1378 5.09682 52.6292C5.03868 50.709 4.96117 48.8085 4.88365 46.8884C4.82551 45.3406 4.72862 43.8123 4.68986 42.2645C4.67048 41.8334 4.45731 41.6179 4.08909 41.4808C4.12785 41.2652 4.18599 41.0889 4.24413 40.8538C3.54646 40.4815 2.77128 40.364 2.01548 40.1093C2.093 39.9917 2.13175 39.8937 2.18989 39.8154C2.22865 39.737 2.2868 39.6782 2.34493 39.5607C2.11238 39.3255 1.8992 39.0904 1.64726 38.8161C1.87982 38.5614 2.07362 38.3263 2.34493 37.9932C2.03486 37.9736 1.84106 37.9736 1.64726 37.954C1.43409 37.954 1.22091 37.954 1.00774 37.954C0.290696 37.9344 0.0968978 37.7581 0 36.896C0.251934 36.8372 0.503869 36.7393 0.775182 36.7001C1.78292 36.5238 2.77128 36.367 3.77901 36.1907C3.91467 36.1711 4.05033 36.1319 4.22474 36.0731C4.20536 35.7204 4.18599 35.3874 4.14723 35.0543C4.06971 34.4273 3.97281 33.7807 3.87591 33.1538C3.75963 32.3504 3.95343 32.0566 4.70923 31.8018C5.60069 31.4884 6.49216 31.312 7.44176 31.3512C9.43785 31.4492 10.9688 32.2721 11.8991 34.1138C12.2866 34.8779 12.1122 34.7604 12.9262 34.6428C14.1858 34.4469 15.4455 34.2118 16.7052 33.9767C18.6238 33.6044 20.5617 33.2125 22.4803 32.8207C23.8756 32.5268 25.2516 32.2329 26.6469 31.9194C26.9763 31.841 27.2864 31.7431 27.6353 31.6647C27.9647 31.8998 28.081 32.2721 28.2554 32.6247C28.6624 33.4281 28.4686 33.2909 29.36 33.1929C30.4647 33.0754 31.5499 32.9382 32.6546 32.9186C33.798 32.8991 34.922 33.0362 35.9685 33.6044C36.1235 33.6828 36.2979 33.7024 36.4723 33.7416C37.0731 33.8591 37.6739 33.9375 38.2746 34.1138C39.67 34.5057 40.387 35.5049 40.6002 36.896C40.8909 38.7378 41.1234 40.5795 41.4529 42.4016C42.073 45.8696 42.8095 49.3179 43.7203 52.7271C44.1466 54.3925 44.573 56.0579 45.0575 57.7037C45.542 59.3495 46.0846 60.9758 46.6078 62.6216C46.6854 62.8371 46.7435 63.0526 46.8016 63.2681C46.7629 63.2877 46.7435 63.3073 46.7047 63.3269C46.5109 63.1702 46.3172 63.0134 46.1427 62.8567C45.6389 63.3465 45.6389 63.3465 45.0575 62.9351C44.6893 62.6803 44.6893 62.6803 44.3404 62.9742C44.2823 63.033 44.2048 63.0722 44.0885 63.1506C43.9141 62.8763 43.7591 62.6216 43.5459 62.2689C43.3908 62.6999 43.2746 63.0134 43.1583 63.3465C43.0226 63.6796 42.887 63.9931 42.7513 64.3066C40.8715 63.5816 38.9723 63.2485 37.015 63.1898C35.9685 63.1506 34.922 63.0918 33.8561 63.1114C31.9181 63.1506 29.9802 63.3073 28.0616 63.6992C27.2477 63.8755 26.4143 64.0127 25.581 64.1302C24.4182 64.287 23.5074 63.9147 22.9454 62.6803C22.5966 61.877 22.4609 61.0541 22.4028 60.2116C22.3834 59.8786 22.3446 59.5455 22.1121 59.33C21.8408 59.0557 21.8989 58.8205 21.9958 58.507C22.364 57.449 22.7516 56.4106 23.1004 55.3526C24.2826 51.7867 25.3678 48.2012 26.2399 44.5373C26.5112 43.3421 26.7438 42.1469 26.9764 40.9518C27.0151 40.795 26.9957 40.6383 26.9957 40.5011C26.395 40.5599 25.8523 40.6383 25.2903 40.6775C24.5345 40.7362 23.7981 40.8146 23.0423 40.8538C21.7051 40.9322 20.3485 41.0105 19.0114 41.0889C18.023 41.1477 17.0153 41.2456 16.0269 41.324C15.1742 41.3828 14.3215 41.4416 13.4494 41.5004C13.0812 41.52 13.0231 41.5787 13.0037 41.951C12.9456 43.3617 12.9068 44.792 12.868 46.2027C12.868 46.2419 12.8874 46.2614 12.9262 46.3398C13.0231 46.3594 13.1393 46.3986 13.2556 46.379C13.7983 46.3202 14.3409 46.2614 14.8835 46.2027C15.6587 46.1243 16.4145 46.0263 17.1897 45.9871C18.8369 45.8892 20.4842 45.8304 22.1315 45.752C22.8097 45.7128 23.488 45.6933 24.1857 45.6541C24.3601 45.6541 24.5345 45.6737 24.7865 45.6933C24.7283 45.948 24.7089 46.1831 24.612 46.379C24.4182 46.7905 24.3214 47.2019 24.302 47.6525C24.2826 48.1228 24.0888 48.4559 23.6431 48.6518C23.3524 48.7693 23.1004 48.9457 22.7904 49.122C22.8873 49.2396 22.9454 49.2984 23.0229 49.3767C23.0035 49.4159 22.9842 49.4747 22.9454 49.4943C22.5966 49.749 22.2284 50.0233 21.8795 50.2584C21.6664 50.3956 21.4726 50.5327 21.5307 50.8462C21.5695 51.0421 21.4338 51.1401 21.2594 51.1793C20.8524 51.2968 20.4648 51.434 20.0578 51.5515C19.7672 51.6299 19.554 51.7671 19.4183 52.0414C19.3408 52.1981 19.2051 52.3744 19.0307 52.4528C17.9261 53.0602 16.8408 53.6872 15.5618 53.9419C14.6703 54.1182 13.7982 54.4317 12.9262 54.6668C12.6549 54.7452 12.5192 54.9019 12.4804 55.1762C12.4611 55.333 12.4223 55.4897 12.4223 55.6465C12.306 57.6058 12.2091 59.5651 12.0735 61.544C11.9184 63.2289 11.7828 64.8943 11.6665 66.5989ZM37.3444 55.7444C36.1816 52.8839 35.2514 50.0625 34.1662 47.2607C33.6235 48.4755 33.1584 49.6706 32.6739 50.8854C32.1701 52.1001 31.6274 53.2953 31.0848 54.608C33.1972 54.804 35.2127 55.1371 37.3444 55.7444Z" fill="white"/>
  <path d="M56.724 58.9381C60.2704 48.4755 64.6502 38.4047 70.1928 28.8629C70.2315 28.8629 70.2897 28.8825 70.3284 28.8825C70.3866 29.0392 70.4447 29.196 70.5028 29.3527C70.6385 29.6858 70.716 29.7446 71.1036 29.7054C71.4331 29.6858 71.4912 29.725 71.5493 30.0581C71.6075 30.4107 71.6656 30.7634 71.685 31.1161C71.7044 31.3904 71.8013 31.5863 72.0145 31.7431C72.4602 32.0761 72.654 32.5268 72.5765 33.095C72.5183 33.5064 72.4602 33.8983 72.4214 34.3097C72.402 34.4861 72.3827 34.6428 72.3633 34.8779C72.5571 34.8583 72.7121 34.8388 72.8478 34.8192C72.8865 34.8779 72.9447 34.9171 72.9447 34.9563C73.0416 35.8772 73.0416 36.7981 72.6927 37.6797C71.1618 41.6571 69.6308 45.6345 68.2354 49.6902C66.9176 53.5696 65.7742 57.4882 64.7471 61.446C63.7975 65.1491 63.0611 68.9109 62.5572 72.7119C62.5185 72.9862 62.4216 73.1626 62.1309 73.2018C60.5611 73.4173 59.0108 73.6524 57.4216 73.6132C56.7821 73.5936 56.1232 73.5153 55.5031 73.3977C54.6504 73.2214 53.9333 72.7707 53.4876 72.0066C53.2938 71.6931 53.1969 71.3208 53.0419 70.9486C52.8287 71.0465 52.6155 71.1445 52.4217 71.2229C51.8985 71.4188 51.6272 71.3013 51.4915 70.7331C51.0845 69.0676 50.6969 67.3827 50.29 65.7173C49.2628 61.6223 48.2745 57.5274 47.1892 53.4521C46.2202 49.7686 45.135 46.1243 43.8947 42.5192C43.2164 40.5207 42.48 38.5418 41.511 36.6805C41.1816 36.0339 40.7358 35.4657 40.3482 34.8583C40.232 34.6624 40.0769 34.5057 39.9025 34.2902C40.232 34.0746 40.5033 33.8983 40.7746 33.722C42.0536 32.9382 43.4684 32.4288 44.9412 32.37C46.4528 32.3113 47.8869 32.7423 49.069 33.8003C50.4062 34.9955 51.2396 36.5238 51.8791 38.1696C52.4992 39.7762 52.7899 41.4808 53.1775 43.1462C53.7395 45.6345 54.3597 48.1032 54.9023 50.6111C55.4837 53.217 55.9875 55.8424 56.5302 58.4679C56.5496 58.605 56.5883 58.7422 56.6271 58.8793C56.6271 58.9185 56.6658 58.9185 56.724 58.9381Z" fill="white"/>
  <path d="M42.7901 104.08C42.9257 103.728 43.042 103.395 43.1583 103.061C44.6893 98.6138 46.1234 94.1074 47.2086 89.5227C47.8481 86.858 48.3133 84.1738 48.6815 81.47C48.7977 80.6471 48.8946 79.8242 49.0109 79.0013C49.0884 78.4527 49.1466 78.4135 49.6892 78.3155C50.8907 78.0804 52.1116 77.9824 53.3519 77.9628C54.5535 77.9433 55.7356 78.0412 56.8402 78.5702C57.034 78.6682 57.2278 78.7466 57.441 78.7466C58.1774 78.7858 58.8557 79.0013 59.534 79.2364C60.4642 79.5499 61.0844 80.216 61.3751 81.1369C61.5495 81.6855 61.627 82.2733 61.7239 82.8415C62.0921 85.0555 62.4216 87.2891 62.8479 89.5031C63.3518 92.0306 63.9138 94.5385 64.5145 97.0268C65.251 100.083 66.0649 103.101 67.0727 106.079C67.2858 106.686 67.4796 107.293 67.6734 107.901C67.7316 108.058 67.7703 108.234 67.751 108.449C67.5572 108.273 67.3634 108.097 67.1502 107.901C67.1114 107.92 67.0533 107.92 67.0145 107.96C66.6657 108.391 66.5882 108.43 66.1618 108.097C65.7742 107.803 65.4835 107.803 65.1735 108.136C65.1541 108.156 65.1153 108.156 65.0184 108.156C64.8828 107.94 64.7471 107.705 64.5727 107.391C64.1657 108.018 64.0495 108.743 63.6812 109.292C62.9254 109.096 62.189 108.881 61.4332 108.724C60.4061 108.528 59.3596 108.352 58.3325 108.234C57.4604 108.136 56.5883 108.116 55.7163 108.116C53.7783 108.156 51.8209 108.293 49.9024 108.567C48.8753 108.704 47.8675 108.92 46.8404 109.096C46.7629 109.116 46.666 109.135 46.5885 109.135C45.4645 109.253 44.5536 108.959 43.9528 107.666C43.6428 107 43.4684 106.294 43.449 105.569C43.4102 105.021 43.3133 104.472 42.7901 104.08ZM52.131 99.6327C54.224 99.8678 56.2395 100.24 58.2743 100.749C57.2472 97.9085 56.2201 95.1263 55.2124 92.3441C55.1349 92.3833 55.0767 92.3833 55.0767 92.4029C54.1077 94.6756 53.1581 96.968 52.2085 99.2604C52.1892 99.3584 52.1892 99.4367 52.131 99.6327Z" fill="white"/>
  <path d="M21.3369 22.3385C20.9106 22.8283 20.5617 23.2397 20.1935 23.6512C19.4765 24.4349 18.6238 25.0619 17.6742 25.5321C16.492 26.1199 15.2323 26.3942 13.9533 26.5901C12.5773 26.8056 11.2208 26.7469 9.88358 26.3746C8.0619 25.8848 6.78285 24.7288 5.94953 23.0242C5.36814 21.8486 5.07745 20.5947 4.98055 19.3015C4.92241 18.459 4.88365 17.597 4.88365 16.7545C4.88365 11.6211 4.88365 6.50734 4.88365 1.37399C4.88365 0.511898 4.88365 0.511899 5.71697 0.511899C8.00376 0.511899 10.2712 0.511899 12.558 0.511899C12.6549 0.511899 12.7324 0.511899 12.8293 0.511899C13.3913 0.531492 13.4107 0.551086 13.4107 1.11928C13.4107 4.17578 13.4107 7.21269 13.4107 10.2692C13.4107 12.0521 13.4107 13.8547 13.4107 15.6377C13.4107 16.4018 13.5657 17.1659 14.0114 17.8125C14.4571 18.4395 15.0192 18.7921 15.8137 18.8313C16.7052 18.8705 17.5191 18.6354 18.2749 18.1847C18.992 17.7537 19.5152 17.0875 19.9222 16.3626C20.0385 16.1471 20.0385 15.8532 20.0385 15.5789C20.0385 12.5224 20.0385 9.48548 20.0385 6.42897C20.0385 4.72439 20.0385 3.0198 20.0385 1.31521C20.0385 1.17806 20.0385 1.04091 20.0385 0.884164C20.0385 0.629456 20.1547 0.492305 20.4261 0.492305C20.5423 0.492305 20.678 0.492305 20.7943 0.492305C23.1198 0.492305 25.4647 0.492305 27.7903 0.492305C27.9066 0.492305 28.0422 0.492305 28.1585 0.492305C28.488 0.511898 28.5461 0.570679 28.5655 0.923353C28.5849 1.09969 28.5655 1.27602 28.5655 1.45236C28.5655 6.27223 28.5655 11.0921 28.5655 15.9316C28.5655 16.343 28.6042 16.7545 28.6817 17.1463C28.798 17.7341 29.1275 18.126 29.7283 18.2827C30.1158 18.3807 30.1352 18.4199 30.1352 18.8313C30.1352 21.1237 30.1352 23.4161 30.1352 25.6888C30.1352 26.1591 30.0965 26.1983 29.6314 26.2766C28.8368 26.4138 28.0422 26.5705 27.2477 26.6685C26.143 26.7861 25.0384 26.6293 23.9919 26.2374C22.8291 25.8064 22.0927 24.9443 21.7245 23.7491C21.6276 23.4357 21.5695 23.1026 21.4919 22.7695C21.4726 22.6519 21.4144 22.554 21.3369 22.3385Z" fill="white"/>
  <path d="M41.2785 4.117C41.763 3.5684 42.1699 3.07858 42.5963 2.62794C43.3908 1.80503 44.3598 1.25644 45.4063 0.825391C46.821 0.237602 48.3133 0.0220772 49.8249 0.0024842C50.6388 -0.0171088 51.4721 0.0808584 52.2667 0.237602C53.3713 0.453125 54.2822 1.09969 55.0767 1.9226C56.2395 3.15695 56.7821 4.66561 57.034 6.31142C57.2085 7.44781 57.2666 8.6038 57.2666 9.75978C57.2472 14.9519 57.2666 20.1636 57.2666 25.3558C57.2666 26.1591 57.2666 26.1591 56.4527 26.1591C54.1465 26.1591 51.8209 26.1591 49.5148 26.1591C49.476 26.1591 49.4373 26.1591 49.4179 26.1591C48.7977 26.1591 48.759 26.1395 48.759 25.4929C48.759 20.9669 48.759 16.441 48.759 11.915C48.759 11.2488 48.7396 10.6023 48.5458 9.9753C48.0419 8.3099 46.2978 7.64374 44.8443 8.50583C43.8366 9.09361 43.042 9.89693 42.4994 10.9354C42.2668 11.4056 42.1312 11.8758 42.1312 12.4048C42.1505 16.6957 42.1312 20.9865 42.1312 25.2774C42.1312 26.1395 42.1312 26.1395 41.2591 26.1395C38.9529 26.1395 36.6274 26.1395 34.3212 26.1395C33.6235 26.1395 33.6235 26.1199 33.6235 25.4341C33.6235 17.3618 33.6235 9.28955 33.6235 1.21725C33.6235 1.11928 33.6235 1.00173 33.6235 0.903761C33.6429 0.570681 33.7011 0.511901 34.0305 0.492308C34.3018 0.472715 34.5925 0.492308 34.8638 0.492308C36.7049 0.492308 38.546 0.492308 40.387 0.492308C40.5227 0.492308 40.6583 0.492308 40.8134 0.492308C41.2203 0.511901 41.2785 0.551086 41.2785 0.962538C41.2978 1.80503 41.2785 2.62794 41.2785 3.47044C41.2978 3.66637 41.2785 3.8623 41.2785 4.117Z" fill="white"/>
  <path d="M69.9215 13.3257C69.9215 17.3422 69.9215 21.3392 69.9215 25.3558C69.9215 26.1591 69.9215 26.1591 69.1075 26.1591C66.8013 26.1591 64.5146 26.1591 62.2084 26.1591C62.1503 26.1591 62.1115 26.1591 62.0534 26.1591C61.4332 26.1591 61.4138 26.1395 61.4138 25.4929C61.4138 21.7311 61.4138 17.9692 61.4138 14.2074C61.4138 9.91652 61.4138 5.62566 61.4138 1.33481C61.4138 0.492309 61.4138 0.492305 62.2665 0.492305C64.5533 0.492305 66.8207 0.492305 69.1075 0.492305C69.2432 0.492305 69.3982 0.492305 69.5339 0.492305C69.8633 0.511898 69.9214 0.570678 69.9408 0.903759C69.9602 1.0605 69.9408 1.21724 69.9408 1.37399C69.9214 5.39054 69.9215 9.36791 69.9215 13.3257Z" fill="white"/>
  <path d="M46.5303 69.5575C46.4334 69.6554 46.3559 69.7534 46.259 69.871C46.3559 70.0669 46.4528 70.2432 46.5497 70.4196C46.8404 70.8898 46.9373 71.3992 46.7823 71.9478C46.6466 72.418 46.5497 72.9079 46.414 73.3781C46.3753 73.4957 46.3171 73.5936 46.259 73.6916C45.2125 73.3977 44.166 73.3193 43.1195 73.3193C41.7242 73.3193 40.3095 73.2605 38.9142 73.3389C36.9374 73.4565 34.9607 73.5544 33.0034 73.9071C31.9956 74.103 30.9879 74.1814 29.9996 74.3773C28.8755 74.5929 27.7709 74.8476 26.6663 75.1219C26.1624 75.2394 25.6585 75.4354 25.1547 75.5921C24.9609 75.6509 24.7477 75.7097 24.5345 75.7293C23.3718 75.8468 22.5578 75.4158 21.9764 74.3577C21.5888 73.6524 21.395 72.8687 21.3175 72.085C21.2012 70.7722 21.2981 69.4791 21.6857 68.186C21.8795 67.5786 22.2477 67.2259 22.7904 67.0104C23.9919 66.5206 25.2322 66.1679 26.5112 65.9328C28.0035 65.6585 29.4957 65.5801 31.0073 65.4821C32.6933 65.3842 34.36 65.5213 36.046 65.5997C37.6932 65.6781 39.3211 65.9524 40.9296 66.2855C42.325 66.5793 43.7397 66.9516 44.9993 67.657C45.29 67.8137 45.5613 68.0292 45.7939 68.2448C45.9296 68.3623 45.9683 68.5778 46.0458 68.7346C46.2203 69.0285 46.3559 69.2636 46.5303 69.5575Z" fill="white"/>
</svg>